<?xml version="1.0" encoding="UTF-8"?> <svg xmlns="http://www.w3.org/2000/svg" width="2884" height="542" viewBox="0 0 2884 542" fill="none"><path fill-rule="evenodd" clip-rule="evenodd" d="M2179.97 48.5056C2169.89 52.1047 2162.19 58.2939 2157.45 66.5905C2148.25 82.7224 2150.19 100.94 2162.4 113.152C2171.56 122.309 2179.02 125.509 2192.88 126.212C2207.94 126.976 2217.73 123.081 2227.17 112.564C2250.92 86.1148 2231.1 46.0589 2194.4 46.3489C2189.68 46.3859 2183.18 47.3563 2179.97 48.5056ZM968.682 56.5538C942.443 70.3809 943.534 105.368 970.559 116.708C981.182 121.165 999.677 117.812 1008.49 109.832C1012.39 106.301 1016.72 97.5338 1018.04 90.5006C1020.38 78.0033 1012.31 63.2907 999.781 57.2187C991.584 53.2447 975.609 52.9038 968.682 56.5538ZM1397.38 58.1659C1386.99 64.2996 1381.85 72.5144 1381.09 84.2034C1380.63 91.4432 1381.2 94.9683 1383.59 99.6303C1392.86 117.692 1413.54 124.053 1431.84 114.477C1453.8 102.99 1455.47 73.8628 1435 59.4679C1429.2 55.3922 1426.78 54.7165 1416.51 54.3154C1405.89 53.9004 1403.95 54.2907 1397.38 58.1659ZM705.226 61.9532C617.434 71.8187 555.545 141.039 544.107 242.162C541.209 267.791 543.074 314.143 547.935 337.25C563.703 412.207 606.051 463.84 669.12 485.006C702.581 496.235 750.476 496.618 785.027 485.932C838.128 469.51 877.659 429.155 893.181 375.525C899.23 354.621 901.171 356.361 871.803 356.361H846.563L844.751 363.689C843.755 367.719 840.112 376.918 836.658 384.13C831.485 394.932 827.904 399.722 816.334 411.31C804.333 423.331 800.158 426.405 787.652 432.431C764.783 443.448 757.155 445.041 727.566 444.983C703.155 444.935 701.562 444.737 687.508 440.023C668.507 433.648 655.659 426.006 641.547 412.676C615.776 388.338 600.343 356.364 594.203 314.596C590.692 290.703 591.842 248.21 596.601 226.004C607.812 173.675 636.922 135.277 678.264 118.283C711.079 104.794 752.77 105.799 785.035 120.858C814.001 134.376 837.253 161.782 844.812 191.314L846.781 199.007H872.108H897.435L896.457 192.881C894.782 182.399 887.69 161.73 881.606 149.598C856.588 99.7197 808.154 68.0052 747.478 61.7696C729.795 59.9523 722.759 59.9832 705.226 61.9532ZM1816.82 277.684V489.032H1853.8H1890.78L1890.8 391.457C1890.83 287.263 1891.21 281.262 1898.55 266.663C1906.77 250.34 1919.54 239.692 1937.45 234.247C1952.82 229.569 1974.07 230.626 1987.52 236.735C2005.37 244.845 2016.35 260.818 2020.14 284.184C2021.09 290.04 2021.72 332.547 2021.72 391.457L2021.73 489.032H2058.78H2095.83L2095.33 373.717C2094.83 261.421 2094.73 258.094 2091.53 246.687C2080.26 206.605 2056.96 182.138 2020.19 171.783C2012.37 169.58 2004.79 168.969 1985.53 168.99C1962.58 169.014 1960.03 169.313 1948.55 173.311C1934.64 178.156 1920.42 186.804 1912.11 195.473C1905.97 201.87 1896.46 216.268 1894.74 221.762C1894.14 223.672 1892.66 225.233 1891.44 225.233C1889.56 225.233 1889.24 213.715 1889.24 145.784V66.336H1853.03H1816.82V277.684ZM1612.08 170.538C1552.31 183.52 1513.49 227.297 1501.52 295.215C1498.16 314.315 1498.25 349.453 1501.72 369.386C1512.14 429.261 1545.44 471.711 1594.31 487.433C1644.34 503.531 1697.61 493.759 1731.58 462.247C1747.89 447.116 1761.34 423.033 1765.08 402.256L1766.12 396.471H1741.4C1722.65 396.471 1716.68 396.937 1716.68 398.4C1716.68 403.099 1707.25 419.584 1700.06 427.453C1686.34 442.476 1666.4 450.646 1643 450.829C1616.7 451.036 1598.92 443.904 1580.92 425.929C1566.95 411.974 1558.23 396.053 1552.18 373.43C1548.65 360.223 1548.24 355.763 1548.2 330.907C1548.17 305.716 1548.55 301.746 1552.21 288.137C1567.14 232.733 1610.28 203.049 1660.42 213.684C1683.05 218.484 1701.52 232.335 1711.25 251.792C1714.23 257.776 1716.68 263.62 1716.68 264.778C1716.68 266.472 1721.52 266.885 1741.33 266.885C1760.23 266.885 1765.98 266.429 1765.98 264.926C1765.98 263.848 1764.55 257.785 1762.8 251.452C1750.82 208.188 1714.25 177.374 1665.84 169.753C1651.94 167.566 1623.88 167.974 1612.08 170.538ZM2714.27 169.259C2690.23 172.609 2660.84 185.607 2642.74 200.906C2616.44 223.119 2598.02 257.722 2591.6 296.968C2588.47 316.125 2589.16 355.494 2592.97 374.102C2608.79 451.488 2662.02 494.126 2742.77 494.092C2777.06 494.079 2804.23 487.487 2828.19 473.368C2843.11 464.576 2862.21 444.986 2869.33 431.182C2874.67 420.819 2880.8 404.444 2879.66 403.563C2878.92 402.981 2816.69 396.376 2812.87 396.473C2810.79 396.525 2808.82 398.659 2806.79 403.066C2795.23 428.096 2759.07 441.785 2724.1 434.363C2689.21 426.958 2667.99 400.669 2663.3 359.061L2662.3 350.191H2772.86H2883.41L2882.52 322.036C2881.5 289.939 2877.83 270.492 2868.7 248.939C2846.63 196.84 2799.22 167.64 2737.91 168.385C2727.45 168.511 2716.81 168.905 2714.27 169.259ZM959.378 173.167C958.974 174.228 958.823 245.558 959.04 331.678L959.438 488.261L983.704 488.685L1007.97 489.111V330.174V171.239H984.041C966.315 171.239 959.922 171.739 959.378 173.167ZM1057.99 173.901C1058.59 175.407 1083.57 242.935 1113.5 323.965C1143.44 404.995 1169.44 475.299 1171.27 480.199L1174.61 489.108L1199.28 488.684L1223.95 488.261L1282.35 330.142C1314.47 243.176 1340.76 171.83 1340.76 171.594C1340.76 171.359 1328.84 171.356 1314.28 171.587L1287.8 172.01L1244.33 297.69C1220.42 366.813 1200.16 423.599 1199.31 423.883C1198.46 424.167 1196.98 422.108 1196.01 419.306C1195.05 416.505 1175.39 359.717 1152.31 293.111L1110.36 172.01L1083.64 171.587C1058.58 171.191 1056.98 171.334 1057.99 173.901ZM1390.06 330.136V489.111L1414.32 488.685L1438.59 488.261V330.136V172.01L1414.32 171.586L1390.06 171.16V330.136ZM2157.31 330.136V489.032H2194.29H2231.27V330.136V171.239H2194.29H2157.31V330.136ZM2269.78 173.042C2269.78 174.77 2375.74 473.681 2380.02 484.019L2382.1 489.032H2422.85H2463.61L2465.11 484.79C2472.7 463.374 2575.44 174.631 2575.99 173.167C2576.55 171.655 2568.17 171.239 2537.22 171.239H2497.74L2496.28 174.71C2495.48 176.618 2479.09 229.205 2459.88 291.568C2440.66 353.932 2424.35 405.604 2423.65 406.395C2422.94 407.188 2422.02 407.497 2421.61 407.083C2421.2 406.67 2406.93 361.245 2389.91 306.141C2372.9 251.036 2356.54 198.14 2353.58 188.594L2348.19 171.239H2308.98C2280.1 171.239 2269.78 171.714 2269.78 173.042ZM2762.82 229.907C2781.54 235.328 2794.59 246.867 2803.76 266.114C2809.01 277.127 2813.3 297.154 2810.92 299.538C2810.2 300.263 2776.72 300.675 2736.52 300.454L2663.44 300.053L2663.95 293.882C2665.64 273.533 2679.16 250.99 2696.71 239.256C2716.61 225.949 2738.47 222.859 2762.82 229.907Z" fill="#203E7A"></path><path d="M3.76656 144.823C10.6972 134.47 44.9734 98.4211 94.8619 49.0137L144.317 0.0332031H255.194L372.109 63.7462L385.693 92.4397C388.61 98.6031 392.186 106.141 395.875 113.903L424.512 173.924L402.034 186.003C394.319 190.149 388.905 192.975 385.871 194.989C384.644 195.803 383.37 197.067 383.37 197.067C394.362 200.171 405.412 203.046 416.429 206.056L316.699 265.686C315.212 265.656 313.479 265.665 311.545 265.719L306.513 265.849L291.802 266.189C286.415 266.308 280.737 266.428 275.549 266.532L251.805 267.002L169.63 311.312C124.431 335.684 87.4545 356.012 87.4501 356.491C87.4501 357.367 152.916 373.443 156.271 373.391C157.259 373.376 178.056 360.293 202.488 344.316C226.921 328.34 263.551 304.659 283.888 291.695C292.158 286.422 299.929 281.437 306.288 277.326L421.794 206.056L422.067 233.246C422.163 242.58 422.258 251.567 422.336 257.882C422.388 262.373 422.431 265.513 422.453 266.469C422.544 270.417 416.918 273.785 319.482 328.093C277.126 351.702 240.219 372.414 223.978 381.661L118.429 438.5L119.819 439.399C119.394 439.679 119.108 439.884 118.987 440.006C118.944 440.051 119.1 440.177 119.442 440.376C119.728 440.543 120.144 440.76 120.682 441.027L120.877 441.393L121.145 441.252C123.204 442.242 126.65 443.772 131.141 445.697C135.245 447.457 140.221 449.544 145.804 451.847L150.324 453.707L154.121 455.256C157.671 456.702 161.39 458.204 165.217 459.738L212.31 478.612L263.828 454.979C274.166 450.237 283.788 445.783 291.833 442.026C305.841 435.483 315.052 431.051 314.892 430.893C314.644 430.641 261.865 448.31 261.865 448.31C261.865 448.31 239.725 442.862 212.878 433.528C200.356 429.176 188.727 425.195 179.789 422.187C173.665 420.126 168.802 418.52 165.781 417.567L220.454 388.555C243.812 395.238 342.429 418 342.429 418L341.929 422.5C341.929 422.5 340.031 437.544 337.66 450.937L333.347 475.29L299.375 486.238C280.689 492.261 264.903 497.625 264.297 498.162C264.119 498.322 264.895 500.84 266.42 501.623C267.257 502.052 268.319 502.561 269.571 503.133C270.625 503.614 271.812 504.141 273.113 504.705C276.94 506.358 279.645 507.954 284.929 510L298.929 517.5L303.429 519.24H239.196L233.132 516.653C227.411 514.206 221.928 512.26 220.953 512.327C219.978 512.394 211.552 515.157 202.233 518.466L185.285 524.485L200.69 523.705C209.163 523.275 222.275 522.515 229.821 522.01L239.422 521.37L310.929 521L310.08 540.745L203.386 541.142C144.707 541.358 96.7127 541.012 96.73 540.37C96.8167 537.314 136.706 514.702 165.534 501.367C172.581 498.104 178.35 495.143 178.35 494.788C178.35 494.432 157.554 485.586 132.133 475.129L85.429 455V424.5L100.934 413.531C109.196 407.353 116.157 401.781 116.399 401.148C116.646 400.515 100.878 394.527 81.3604 387.84L45.8706 375.677L45.8532 345.135L51.7046 339.379L236.388 177.003L273.048 146.242C281.608 139.06 289.492 132.184 295.885 126.506C300.28 122.605 303.969 119.269 306.691 116.79C309.959 113.808 311.823 112.066 311.823 112.066L341.756 84.3626L306.249 106.555L260.621 80.9211L209.929 48L4.58576 270.216L4.25635 270.222L4.16966 264.328C4.12631 261.088 3.16409 234.137 2.04149 204.44L0 150.444L3.76656 144.823Z" fill="#203E7A"></path><path d="M11.018 270.107L67.0396 269.156C96.4526 268.658 115.749 268.597 123.898 268.967L226.046 177.989L170.332 170.419C144.105 166.856 121.358 163.686 111.532 162.236L11.018 270.107Z" fill="#203E7A"></path><path d="M312.929 111.5L371.929 63.5L255.429 0L207.929 49L312.929 111.5Z" fill="#E24033"></path><path d="M130.429 270.5L234.429 179L104.929 161L3.92896 270.5H130.429Z" fill="#E24033"></path><path d="M316.929 271L421.429 206.5L384.429 196L243.429 271H316.929Z" fill="#E24033"></path><path d="M115.929 401.5L156.929 373.5L88.429 355.5L46.429 376L115.929 401.5Z" fill="#E24033"></path><path d="M268.429 453.5L342.429 418L215.929 385.5L159.929 415.5L268.429 453.5Z" fill="#E24033"></path><path d="M177.929 495L214.929 477.5L85.429 424.5V455.5L177.929 495Z" fill="#E24033"></path><path d="M239.429 521.5L310.929 521L263.929 498.5L219.929 512.5L239.429 521.5Z" fill="#E24033"></path></svg> 